# xmcd CD database file
#
# Track frame offsets:
#	150
#	22041
#	36871
#	56191
#	87625
#	100915
#	133773
#	144565
#	173313
#	201340
#
# Disc length: 3250 seconds
#
# Revision: 0
# Processed by: cddbd v1.4PL0 Copyright (c) Steve Scherf et al.
# Submitted via: CDex 1.50Beta3
#
DISCID=8f0cb00a
DTITLE=Gary Moore - Back To The Blues
DYEAR=1900
DGENRE=Blues
TTITLE0=Enough of the blues
TTITLE1=You upset me baby
TTITLE2=Cold black night
TTITLE3=Stormy Monday
TTITLE4=Ain't got you
TTITLE5=Picture of The Moon
TTITLE6=Looking Back
TTITLE7=The Prophet
TTITLE8=How many lies
TTITLE9=Drowning In Tears
EXTD=
EXTT0=
EXTT1=
EXTT2=
EXTT3=
EXTT4=
EXTT5=
EXTT6=
EXTT7=
EXTT8=
EXTT9=
PLAYORDER=
